<svg xmlns="http://www.w3.org/2000/svg" xmlns:xlink="http://www.w3.org/1999/xlink" width="300" zoomAndPan="magnify" viewBox="0 0 224.87999 74.999997" height="100" preserveAspectRatio="xMidYMid meet" version="1.0"><defs><g/><clipPath id="58bbe561b5"><path d="M 0 0.0195312 L 224.761719 0.0195312 L 224.761719 74.980469 L 0 74.980469 Z M 0 0.0195312 " clip-rule="nonzero"/></clipPath><clipPath id="169fb9c9d5"><path d="M 4.773438 13.894531 L 53.296875 13.894531 L 53.296875 61.121094 L 4.773438 61.121094 Z M 4.773438 13.894531 " clip-rule="nonzero"/></clipPath><clipPath id="dc577e410d"><path d="M 171.574219 13.894531 L 220.296875 13.894531 L 220.296875 61.121094 L 171.574219 61.121094 Z M 171.574219 13.894531 " clip-rule="nonzero"/></clipPath><clipPath id="22de6432d7"><path d="M 29.039062 17 L 45 17 L 45 42 L 29.039062 42 Z M 29.039062 17 " clip-rule="nonzero"/></clipPath><clipPath id="dbdc55852d"><path d="M 44 27 L 61 27 L 61 56.589844 L 44 56.589844 Z M 44 27 " clip-rule="nonzero"/></clipPath><clipPath id="f5cfb8cc0c"><path d="M 29.039062 17 L 46 17 L 46 42 L 29.039062 42 Z M 29.039062 17 " clip-rule="nonzero"/></clipPath><clipPath id="f44a994584"><path d="M 36 17 L 61.273438 17 L 61.273438 29 L 36 29 Z M 36 17 " clip-rule="nonzero"/></clipPath><clipPath id="4f306d7126"><path d="M 44 27 L 61.273438 27 L 61.273438 56.589844 L 44 56.589844 Z M 44 27 " clip-rule="nonzero"/></clipPath><clipPath id="9eb3f512e9"><path d="M 160.835938 17.457031 L 178 17.457031 L 178 43 L 160.835938 43 Z M 160.835938 17.457031 " clip-rule="nonzero"/></clipPath><clipPath id="d4a8a348b2"><path d="M 168 17.457031 L 193.066406 17.457031 L 193.066406 29 L 168 29 Z M 168 17.457031 " clip-rule="nonzero"/></clipPath><clipPath id="d62e2247e5"><path d="M 176 28 L 193.066406 28 L 193.066406 57.1875 L 176 57.1875 Z M 176 28 " clip-rule="nonzero"/></clipPath></defs><g clip-path="url(#58bbe561b5)"><path fill="#ffffff" d="M 0 0.0195312 L 224.878906 0.0195312 L 224.878906 74.980469 L 0 74.980469 Z M 0 0.0195312 " fill-opacity="1" fill-rule="nonzero"/><path fill="#fff799" d="M 0 0.0195312 L 224.878906 0.0195312 L 224.878906 74.980469 L 0 74.980469 Z M 0 0.0195312 " fill-opacity="1" fill-rule="nonzero"/></g><g clip-path="url(#169fb9c9d5)"><path fill="#ffbd59" d="M 10.480469 45.921875 L 10.09375 41.339844 L 22.257812 40.042969 L 4.824219 38.019531 L 6.25 22.570312 L 8.273438 22.804688 L 8.261719 13.933594 L 50.554688 13.894531 L 50.5625 26.53125 L 40.425781 26.542969 L 48.308594 27.453125 L 47.398438 37.359375 L 52.179688 36.855469 L 53.246094 49.457031 L 46.828125 50.144531 L 50.351562 50.550781 L 49.382812 61.097656 L 7.324219 56.214844 L 8.292969 45.667969 Z M 10.480469 45.921875 " fill-opacity="1" fill-rule="nonzero"/></g><g clip-path="url(#dc577e410d)"><path fill="#ffbd59" d="M 214.390625 45.921875 L 214.777344 41.339844 L 202.613281 40.042969 L 220.046875 38.019531 L 218.621094 22.570312 L 216.597656 22.804688 L 216.609375 13.933594 L 174.316406 13.894531 L 174.308594 26.53125 L 184.445312 26.542969 L 176.5625 27.453125 L 177.472656 37.359375 L 172.691406 36.855469 L 171.625 49.457031 L 178.046875 50.144531 L 174.519531 50.550781 L 175.488281 61.097656 L 217.546875 56.214844 L 216.578125 45.667969 Z M 214.390625 45.921875 " fill-opacity="1" fill-rule="nonzero"/></g><path fill="#90adc6" d="M 34.070312 28.933594 C 34.070312 26.40625 35.425781 24.621094 37.109375 24.84375 C 38.796875 25.070312 40.171875 27.214844 40.171875 29.742188 C 40.171875 29.835938 40.167969 29.929688 40.164062 30.023438 C 38.121094 29.855469 36.089844 29.585938 34.074219 29.214844 C 34.070312 29.121094 34.070312 29.027344 34.070312 28.933594 Z M 34.070312 28.933594 " fill-opacity="1" fill-rule="nonzero"/><path fill="#c5ddef" d="M 40.164062 30.023438 C 40.066406 32.410156 38.734375 34.203125 37.113281 33.988281 C 35.488281 33.773438 34.171875 31.625 34.074219 29.214844 C 36.089844 29.585938 38.121094 29.855469 40.164062 30.023438 Z M 40.164062 30.023438 " fill-opacity="1" fill-rule="nonzero"/><path fill="#bed5e5" d="M 44.976562 29.945312 C 44.976562 36.414062 41.4375 41.722656 37.113281 41.140625 C 39.722656 41.488281 42.34375 41.664062 44.976562 41.671875 Z M 44.976562 29.945312 " fill-opacity="1" fill-rule="nonzero"/><g clip-path="url(#22de6432d7)"><path fill="#ffffff" d="M 44.976562 29.945312 C 44.976562 36.414062 41.4375 41.722656 37.113281 41.140625 C 32.785156 40.578125 29.347656 34.335938 29.351562 27.871094 C 29.347656 21.382812 32.785156 17.125 37.113281 17.6875 C 41.4375 18.269531 44.976562 23.460938 44.976562 29.945312 Z M 37.113281 33.988281 C 38.796875 34.210938 40.171875 32.265625 40.171875 29.742188 C 40.171875 27.214844 38.796875 25.070312 37.113281 24.84375 C 35.425781 24.621094 34.070312 26.40625 34.070312 28.933594 C 34.070312 31.457031 35.425781 33.765625 37.113281 33.988281 Z M 37.113281 33.988281 " fill-opacity="1" fill-rule="nonzero"/></g><g clip-path="url(#dbdc55852d)"><path fill="#efefef" d="M 60.964844 27.945312 C 60.964844 34.292969 60.964844 46.632812 60.964844 52.980469 C 55.777344 54.777344 50.449219 55.882812 44.976562 56.289062 L 44.976562 30.023438 C 50.398438 30.039062 55.726562 29.347656 60.964844 27.945312 Z M 60.964844 27.945312 " fill-opacity="1" fill-rule="nonzero"/></g><path fill="#ffffff" d="M 44.976562 29.945312 C 44.976562 23.460938 41.4375 18.269531 37.113281 17.6875 C 42.476562 18.398438 47.839844 18.398438 53.203125 17.6875 C 57.53125 17.121094 60.964844 21.382812 60.964844 27.871094 C 60.964844 27.894531 60.964844 27.921875 60.964844 27.945312 C 55.726562 29.347656 50.398438 30.039062 44.976562 30.023438 Z M 44.976562 29.945312 " fill-opacity="1" fill-rule="nonzero"/><g clip-path="url(#f5cfb8cc0c)"><path stroke-linecap="round" transform="matrix(0.0738305, 0, 0, 0.0739278, 29.054473, 17.342108)" fill="none" stroke-linejoin="round" d="M 4.023938 142.422576 C 3.971029 229.870667 50.530406 314.30695 109.152894 321.915727 C 167.722474 329.788697 215.657469 257.980869 215.60456 170.479939 C 215.657469 82.767655 167.722474 12.544988 109.152894 4.672018 C 50.530406 -2.936758 3.971029 54.657452 4.023938 142.422576 Z M 4.023938 142.422576 " stroke="#333652" stroke-width="8" stroke-opacity="1" stroke-miterlimit="4"/></g><path stroke-linecap="round" transform="matrix(0.0738305, 0, 0, 0.0739278, 29.054473, 17.342108)" fill="none" stroke-linejoin="round" d="M 67.937264 156.794709 C 67.937264 190.928526 86.296473 222.156213 109.152894 225.16802 C 131.956407 228.179827 150.580158 201.866142 150.527249 167.732325 C 150.527249 133.598509 131.956407 104.537209 109.152894 101.472563 C 86.296473 98.460756 67.937264 122.608054 67.937264 156.794709 Z M 67.937264 156.794709 " stroke="#333652" stroke-width="8" stroke-opacity="1" stroke-miterlimit="4"/><g clip-path="url(#f44a994584)"><path stroke-linecap="round" transform="matrix(0.0738305, 0, 0, 0.0739278, 29.054473, 17.342108)" fill="none" stroke-linejoin="round" d="M 432.211479 142.422576 C 432.211479 54.657452 385.705011 -2.936758 327.082523 4.672018 C 254.439313 14.288666 181.796104 14.288666 109.152894 4.672018 " stroke="#333652" stroke-width="8" stroke-opacity="1" stroke-miterlimit="4"/></g><g clip-path="url(#4f306d7126)"><path stroke-linecap="round" transform="matrix(0.0738305, 0, 0, 0.0739278, 29.054473, 17.342108)" fill="none" stroke-linejoin="round" d="M 215.60456 170.479939 C 215.60456 262.260805 215.60456 435.043438 215.60456 526.824304 C 289.782113 521.329077 361.949147 506.375718 432.211479 482.069904 C 432.211479 395.837104 432.211479 228.602537 432.211479 142.422576 " stroke="#333652" stroke-width="8" stroke-opacity="1" stroke-miterlimit="4"/></g><path stroke-linecap="round" transform="matrix(0.0738305, 0, 0, 0.0739278, 29.054473, 17.342108)" fill="none" stroke-linejoin="round" d="M 109.152894 321.915727 C 144.495694 326.618373 179.997219 328.996116 215.60456 329.101793 " stroke="#333652" stroke-width="8" stroke-opacity="1" stroke-miterlimit="4"/><g fill="#f5e3b8" fill-opacity="1"><g transform="translate(67.231787, 46.403619)"><g><path d="M 6.984375 -3.109375 L 16.9375 -3.109375 L 16.9375 -7.796875 L 6.984375 -7.796875 Z M 16.9375 -15.640625 L 6.984375 -15.640625 L 6.984375 -11.25 L 16.9375 -11.25 Z M 3.375 -19.15625 L 20.703125 -19.15625 L 20.703125 1.984375 L 16.9375 1.984375 L 16.9375 0.390625 L 6.984375 0.390625 L 6.984375 1.984375 L 3.375 1.984375 Z M 3.375 -19.15625 "/></g></g></g><g fill="#f5e3b8" fill-opacity="1"><g transform="translate(89.194688, 46.403619)"><g><path d="M 14.078125 -7.84375 L 18.34375 -7.84375 L 18.34375 -10.21875 L 14.078125 -10.21875 Z M 6.625 -7.84375 L 10.5625 -7.84375 L 10.5625 -10.21875 L 6.703125 -10.21875 C 6.703125 -9.476562 6.675781 -8.6875 6.625 -7.84375 Z M 10.5625 -15.640625 L 6.703125 -15.640625 L 6.703125 -13.4375 L 10.5625 -13.4375 Z M 18.34375 -13.4375 L 18.34375 -15.640625 L 14.078125 -15.640625 L 14.078125 -13.4375 Z M 21.828125 -18.953125 L 21.828125 -1.640625 C 21.828125 -0.765625 21.71875 -0.0820312 21.5 0.40625 C 21.28125 0.894531 20.914062 1.273438 20.40625 1.546875 C 19.59375 1.960938 18.019531 2.15625 15.6875 2.125 C 15.5625 1.125 15.195312 0.0195312 14.59375 -1.1875 C 15.164062 -1.144531 16.21875 -1.125 17.75 -1.125 C 18.144531 -1.125 18.34375 -1.3125 18.34375 -1.6875 L 18.34375 -4.5625 L 14.078125 -4.5625 L 14.078125 1.9375 L 10.5625 1.9375 L 10.5625 -4.5625 L 6.234375 -4.5625 C 5.710938 -1.53125 4.695312 0.789062 3.1875 2.40625 C 2.90625 2.082031 2.46875 1.675781 1.875 1.1875 C 1.289062 0.707031 0.804688 0.363281 0.421875 0.15625 C 1.046875 -0.507812 1.554688 -1.28125 1.953125 -2.15625 C 2.347656 -3.03125 2.628906 -3.96875 2.796875 -4.96875 C 2.972656 -5.976562 3.085938 -6.867188 3.140625 -7.640625 C 3.203125 -8.421875 3.234375 -9.332031 3.234375 -10.375 L 3.234375 -18.953125 Z M 21.828125 -18.953125 "/></g></g></g><g fill="#f5e3b8" fill-opacity="1"><g transform="translate(111.157588, 46.403619)"><g><path d="M 15.859375 -13.796875 L 15.859375 -16.25 L 8.0625 -16.25 L 8.0625 -13.796875 Z M 19.421875 -19.609375 L 19.421875 -10.46875 L 4.703125 -10.46875 L 4.703125 -19.609375 Z M 7.5625 -5.4375 L 4.796875 -5.4375 L 4.796875 -2.203125 L 7.5625 -2.203125 Z M 1.515625 2.265625 L 1.515625 -8.78125 L 11.03125 -8.78125 L 11.03125 2.171875 L 7.5625 2.171875 L 7.5625 1.125 L 4.796875 1.125 L 4.796875 2.265625 Z M 16.0625 -2.203125 L 19 -2.203125 L 19 -5.4375 L 16.0625 -5.4375 Z M 12.734375 -8.78125 L 22.515625 -8.78125 L 22.515625 2.171875 L 19 2.171875 L 19 1.125 L 16.0625 1.125 L 16.0625 2.265625 L 12.734375 2.265625 Z M 12.734375 -8.78125 "/></g></g></g><g fill="#f5e3b8" fill-opacity="1"><g transform="translate(133.120491, 46.403619)"><g><path d="M 13 -12.25 L 10.421875 -12.25 C 10.203125 -11.707031 9.90625 -11.234375 9.53125 -10.828125 L 13 -10.828125 Z M 5.875 -14.9375 L 5.640625 -14.21875 L 7.65625 -14.21875 C 7.6875 -14.351562 7.71875 -14.59375 7.75 -14.9375 Z M 10.890625 -17.640625 L 10.890625 -16.90625 L 13 -16.90625 L 13 -17.640625 Z M 18.109375 -17.640625 L 16.28125 -17.640625 L 16.28125 -16.90625 L 18.109375 -16.90625 Z M 13 -14.21875 L 13 -14.9375 L 10.890625 -14.9375 C 10.890625 -14.863281 10.882812 -14.742188 10.875 -14.578125 C 10.875 -14.410156 10.875 -14.289062 10.875 -14.21875 Z M 19.421875 -12.25 L 16.28125 -12.25 L 16.28125 -10.828125 L 17.984375 -10.828125 C 17.878906 -11.179688 17.769531 -11.46875 17.65625 -11.6875 C 18.175781 -11.625 18.5625 -11.601562 18.8125 -11.625 C 19.03125 -11.625 19.1875 -11.675781 19.28125 -11.78125 C 19.320312 -11.894531 19.367188 -12.050781 19.421875 -12.25 Z M 16.796875 -4.03125 L 7.375 -4.03125 L 7.375 -3.328125 L 16.796875 -3.328125 Z M 16.796875 -6.46875 L 7.375 -6.46875 L 7.375 -5.8125 L 16.796875 -5.8125 Z M 16.796875 -8.921875 L 7.375 -8.921875 L 7.375 -8.25 L 16.796875 -8.25 Z M 20.328125 -1.421875 L 17.546875 -1.421875 C 20.046875 -0.546875 21.890625 0.160156 23.078125 0.703125 L 19.140625 2.3125 C 17.703125 1.488281 15.644531 0.609375 12.96875 -0.328125 L 14.796875 -1.421875 L 9.109375 -1.421875 L 10.96875 -0.609375 C 9.039062 0.554688 6.507812 1.546875 3.375 2.359375 C 2.53125 1.359375 1.691406 0.535156 0.859375 -0.109375 C 2.984375 -0.421875 4.851562 -0.859375 6.46875 -1.421875 L 4 -1.421875 L 4 -8.34375 C 3.59375 -8.257812 3.0625 -8.179688 2.40625 -8.109375 C 2.269531 -8.484375 2.03125 -8.945312 1.6875 -9.5 C 1.351562 -10.050781 1.046875 -10.484375 0.765625 -10.796875 C 3.484375 -11.066406 5.34375 -11.550781 6.34375 -12.25 L 4.921875 -12.25 L 4.84375 -12.078125 L 1.703125 -12.265625 C 2.234375 -13.453125 2.757812 -15 3.28125 -16.90625 L 7.75 -16.90625 L 7.75 -17.640625 L 2.484375 -17.640625 L 2.484375 -19.609375 L 7.75 -19.609375 L 7.75 -20.515625 L 10.890625 -20.515625 L 10.890625 -19.609375 L 13 -19.609375 L 13 -20.515625 L 16.28125 -20.515625 L 16.28125 -19.609375 L 21.25 -19.609375 L 21.25 -14.9375 L 16.28125 -14.9375 L 16.28125 -14.21875 L 22.8125 -14.21875 C 22.800781 -13.851562 22.796875 -13.570312 22.796875 -13.375 C 22.703125 -11.78125 22.472656 -10.765625 22.109375 -10.328125 C 21.765625 -9.953125 21.265625 -9.734375 20.609375 -9.671875 L 20.328125 -9.65625 Z M 20.328125 -1.421875 "/></g></g></g><g fill="#6c4f3d" fill-opacity="1"><g transform="translate(66.277701, 45.449534)"><g><path d="M 6.984375 -3.109375 L 16.9375 -3.109375 L 16.9375 -7.796875 L 6.984375 -7.796875 Z M 16.9375 -15.640625 L 6.984375 -15.640625 L 6.984375 -11.25 L 16.9375 -11.25 Z M 3.375 -19.15625 L 20.703125 -19.15625 L 20.703125 1.984375 L 16.9375 1.984375 L 16.9375 0.390625 L 6.984375 0.390625 L 6.984375 1.984375 L 3.375 1.984375 Z M 3.375 -19.15625 "/></g></g></g><g fill="#6c4f3d" fill-opacity="1"><g transform="translate(88.240602, 45.449534)"><g><path d="M 14.078125 -7.84375 L 18.34375 -7.84375 L 18.34375 -10.21875 L 14.078125 -10.21875 Z M 6.625 -7.84375 L 10.5625 -7.84375 L 10.5625 -10.21875 L 6.703125 -10.21875 C 6.703125 -9.476562 6.675781 -8.6875 6.625 -7.84375 Z M 10.5625 -15.640625 L 6.703125 -15.640625 L 6.703125 -13.4375 L 10.5625 -13.4375 Z M 18.34375 -13.4375 L 18.34375 -15.640625 L 14.078125 -15.640625 L 14.078125 -13.4375 Z M 21.828125 -18.953125 L 21.828125 -1.640625 C 21.828125 -0.765625 21.71875 -0.0820312 21.5 0.40625 C 21.28125 0.894531 20.914062 1.273438 20.40625 1.546875 C 19.59375 1.960938 18.019531 2.15625 15.6875 2.125 C 15.5625 1.125 15.195312 0.0195312 14.59375 -1.1875 C 15.164062 -1.144531 16.21875 -1.125 17.75 -1.125 C 18.144531 -1.125 18.34375 -1.3125 18.34375 -1.6875 L 18.34375 -4.5625 L 14.078125 -4.5625 L 14.078125 1.9375 L 10.5625 1.9375 L 10.5625 -4.5625 L 6.234375 -4.5625 C 5.710938 -1.53125 4.695312 0.789062 3.1875 2.40625 C 2.90625 2.082031 2.46875 1.675781 1.875 1.1875 C 1.289062 0.707031 0.804688 0.363281 0.421875 0.15625 C 1.046875 -0.507812 1.554688 -1.28125 1.953125 -2.15625 C 2.347656 -3.03125 2.628906 -3.96875 2.796875 -4.96875 C 2.972656 -5.976562 3.085938 -6.867188 3.140625 -7.640625 C 3.203125 -8.421875 3.234375 -9.332031 3.234375 -10.375 L 3.234375 -18.953125 Z M 21.828125 -18.953125 "/></g></g></g><g fill="#6c4f3d" fill-opacity="1"><g transform="translate(110.203502, 45.449534)"><g><path d="M 15.859375 -13.796875 L 15.859375 -16.25 L 8.0625 -16.25 L 8.0625 -13.796875 Z M 19.421875 -19.609375 L 19.421875 -10.46875 L 4.703125 -10.46875 L 4.703125 -19.609375 Z M 7.5625 -5.4375 L 4.796875 -5.4375 L 4.796875 -2.203125 L 7.5625 -2.203125 Z M 1.515625 2.265625 L 1.515625 -8.78125 L 11.03125 -8.78125 L 11.03125 2.171875 L 7.5625 2.171875 L 7.5625 1.125 L 4.796875 1.125 L 4.796875 2.265625 Z M 16.0625 -2.203125 L 19 -2.203125 L 19 -5.4375 L 16.0625 -5.4375 Z M 12.734375 -8.78125 L 22.515625 -8.78125 L 22.515625 2.171875 L 19 2.171875 L 19 1.125 L 16.0625 1.125 L 16.0625 2.265625 L 12.734375 2.265625 Z M 12.734375 -8.78125 "/></g></g></g><g fill="#6c4f3d" fill-opacity="1"><g transform="translate(132.166405, 45.449534)"><g><path d="M 13 -12.25 L 10.421875 -12.25 C 10.203125 -11.707031 9.90625 -11.234375 9.53125 -10.828125 L 13 -10.828125 Z M 5.875 -14.9375 L 5.640625 -14.21875 L 7.65625 -14.21875 C 7.6875 -14.351562 7.71875 -14.59375 7.75 -14.9375 Z M 10.890625 -17.640625 L 10.890625 -16.90625 L 13 -16.90625 L 13 -17.640625 Z M 18.109375 -17.640625 L 16.28125 -17.640625 L 16.28125 -16.90625 L 18.109375 -16.90625 Z M 13 -14.21875 L 13 -14.9375 L 10.890625 -14.9375 C 10.890625 -14.863281 10.882812 -14.742188 10.875 -14.578125 C 10.875 -14.410156 10.875 -14.289062 10.875 -14.21875 Z M 19.421875 -12.25 L 16.28125 -12.25 L 16.28125 -10.828125 L 17.984375 -10.828125 C 17.878906 -11.179688 17.769531 -11.46875 17.65625 -11.6875 C 18.175781 -11.625 18.5625 -11.601562 18.8125 -11.625 C 19.03125 -11.625 19.1875 -11.675781 19.28125 -11.78125 C 19.320312 -11.894531 19.367188 -12.050781 19.421875 -12.25 Z M 16.796875 -4.03125 L 7.375 -4.03125 L 7.375 -3.328125 L 16.796875 -3.328125 Z M 16.796875 -6.46875 L 7.375 -6.46875 L 7.375 -5.8125 L 16.796875 -5.8125 Z M 16.796875 -8.921875 L 7.375 -8.921875 L 7.375 -8.25 L 16.796875 -8.25 Z M 20.328125 -1.421875 L 17.546875 -1.421875 C 20.046875 -0.546875 21.890625 0.160156 23.078125 0.703125 L 19.140625 2.3125 C 17.703125 1.488281 15.644531 0.609375 12.96875 -0.328125 L 14.796875 -1.421875 L 9.109375 -1.421875 L 10.96875 -0.609375 C 9.039062 0.554688 6.507812 1.546875 3.375 2.359375 C 2.53125 1.359375 1.691406 0.535156 0.859375 -0.109375 C 2.984375 -0.421875 4.851562 -0.859375 6.46875 -1.421875 L 4 -1.421875 L 4 -8.34375 C 3.59375 -8.257812 3.0625 -8.179688 2.40625 -8.109375 C 2.269531 -8.484375 2.03125 -8.945312 1.6875 -9.5 C 1.351562 -10.050781 1.046875 -10.484375 0.765625 -10.796875 C 3.484375 -11.066406 5.34375 -11.550781 6.34375 -12.25 L 4.921875 -12.25 L 4.84375 -12.078125 L 1.703125 -12.265625 C 2.234375 -13.453125 2.757812 -15 3.28125 -16.90625 L 7.75 -16.90625 L 7.75 -17.640625 L 2.484375 -17.640625 L 2.484375 -19.609375 L 7.75 -19.609375 L 7.75 -20.515625 L 10.890625 -20.515625 L 10.890625 -19.609375 L 13 -19.609375 L 13 -20.515625 L 16.28125 -20.515625 L 16.28125 -19.609375 L 21.25 -19.609375 L 21.25 -14.9375 L 16.28125 -14.9375 L 16.28125 -14.21875 L 22.8125 -14.21875 C 22.800781 -13.851562 22.796875 -13.570312 22.796875 -13.375 C 22.703125 -11.78125 22.472656 -10.765625 22.109375 -10.328125 C 21.765625 -9.953125 21.265625 -9.734375 20.609375 -9.671875 L 20.328125 -9.65625 Z M 20.328125 -1.421875 "/></g></g></g><path fill="#90adc6" d="M 165.863281 29.53125 C 165.863281 27.003906 167.222656 25.21875 168.90625 25.441406 C 170.59375 25.664062 171.964844 27.8125 171.964844 30.339844 C 171.964844 30.433594 171.960938 30.527344 171.957031 30.621094 C 169.914062 30.453125 167.886719 30.183594 165.871094 29.8125 C 165.867188 29.71875 165.863281 29.625 165.863281 29.53125 Z M 165.863281 29.53125 " fill-opacity="1" fill-rule="nonzero"/><path fill="#c5ddef" d="M 171.957031 30.621094 C 171.859375 33.003906 170.527344 34.796875 168.90625 34.582031 C 167.285156 34.367188 165.964844 32.222656 165.871094 29.8125 C 167.886719 30.183594 169.914062 30.453125 171.957031 30.621094 Z M 171.957031 30.621094 " fill-opacity="1" fill-rule="nonzero"/><path fill="#bed5e5" d="M 176.769531 30.542969 C 176.773438 37.007812 173.234375 42.320312 168.90625 41.738281 C 171.515625 42.085938 174.136719 42.261719 176.769531 42.269531 Z M 176.769531 30.542969 " fill-opacity="1" fill-rule="nonzero"/><path fill="#ffffff" d="M 176.769531 30.542969 C 176.773438 37.007812 173.234375 42.320312 168.90625 41.738281 C 164.578125 41.171875 161.144531 34.933594 161.144531 28.464844 C 161.144531 21.980469 164.578125 17.71875 168.90625 18.285156 C 173.234375 18.867188 176.773438 24.054688 176.769531 30.542969 Z M 168.90625 34.582031 C 170.59375 34.808594 171.964844 32.863281 171.964844 30.339844 C 171.964844 27.8125 170.59375 25.664062 168.90625 25.441406 C 167.222656 25.21875 165.863281 27.003906 165.863281 29.53125 C 165.863281 32.050781 167.222656 34.359375 168.90625 34.582031 Z M 168.90625 34.582031 " fill-opacity="1" fill-rule="nonzero"/><path fill="#efefef" d="M 192.757812 28.542969 C 192.757812 34.890625 192.757812 47.226562 192.757812 53.574219 C 187.574219 55.375 182.242188 56.476562 176.769531 56.886719 L 176.769531 30.617188 C 182.191406 30.632812 187.519531 29.941406 192.757812 28.542969 Z M 192.757812 28.542969 " fill-opacity="1" fill-rule="nonzero"/><path fill="#ffffff" d="M 176.769531 30.542969 C 176.773438 24.054688 173.234375 18.867188 168.90625 18.285156 C 174.269531 18.996094 179.632812 18.996094 184.996094 18.285156 C 189.324219 17.71875 192.761719 21.980469 192.757812 28.464844 C 192.757812 28.492188 192.757812 28.515625 192.757812 28.542969 C 187.519531 29.941406 182.191406 30.632812 176.769531 30.617188 Z M 176.769531 30.542969 " fill-opacity="1" fill-rule="nonzero"/><g clip-path="url(#9eb3f512e9)"><path stroke-linecap="round" transform="matrix(0.0738305, 0, 0, 0.0739278, 160.849358, 17.93804)" fill="none" stroke-linejoin="round" d="M 3.997987 142.393061 C 3.997987 229.893991 50.504456 314.277435 109.126944 321.939051 C 167.749432 329.812021 215.684426 257.951354 215.631518 170.503263 C 215.684426 82.73814 167.749432 12.568312 109.126944 4.695342 C 50.504456 -2.966273 3.997987 54.680777 3.997987 142.393061 Z M 3.997987 142.393061 " stroke="#333652" stroke-width="8" stroke-opacity="1" stroke-miterlimit="4"/></g><path stroke-linecap="round" transform="matrix(0.0738305, 0, 0, 0.0739278, 160.849358, 17.93804)" fill="none" stroke-linejoin="round" d="M 67.911313 156.818033 C 67.911313 190.899011 86.323431 222.126698 109.126944 225.138505 C 131.983365 228.203151 150.554207 201.889466 150.554207 167.755649 C 150.554207 133.568994 131.930457 104.507695 109.126944 101.495888 C 86.323431 98.48408 67.911313 122.631378 67.911313 156.818033 Z M 67.911313 156.818033 " stroke="#333652" stroke-width="8" stroke-opacity="1" stroke-miterlimit="4"/><g clip-path="url(#d4a8a348b2)"><path stroke-linecap="round" transform="matrix(0.0738305, 0, 0, 0.0739278, 160.849358, 17.93804)" fill="none" stroke-linejoin="round" d="M 432.185528 142.393061 C 432.238437 54.680777 385.67906 -2.966273 327.056572 4.695342 C 254.413363 14.31199 181.770153 14.31199 109.126944 4.695342 " stroke="#333652" stroke-width="8" stroke-opacity="1" stroke-miterlimit="4"/></g><g clip-path="url(#d62e2247e5)"><path stroke-linecap="round" transform="matrix(0.0738305, 0, 0, 0.0739278, 160.849358, 17.93804)" fill="none" stroke-linejoin="round" d="M 215.631518 170.503263 C 215.631518 262.231291 215.631518 435.066762 215.631518 526.847629 C 289.756162 521.299562 361.976105 506.399042 432.185528 482.040389 C 432.185528 395.860428 432.185528 228.625861 432.185528 142.393061 " stroke="#333652" stroke-width="8" stroke-opacity="1" stroke-miterlimit="4"/></g><path stroke-linecap="round" transform="matrix(0.0738305, 0, 0, 0.0739278, 160.849358, 17.93804)" fill="none" stroke-linejoin="round" d="M 109.126944 321.939051 C 144.469743 326.641697 179.971268 329.01944 215.631518 329.125117 " stroke="#333652" stroke-width="8" stroke-opacity="1" stroke-miterlimit="4"/></svg>