<svg xmlns="http://www.w3.org/2000/svg" xmlns:xlink="http://www.w3.org/1999/xlink" width="500" zoomAndPan="magnify" viewBox="0 0 375 374.999991" height="500" preserveAspectRatio="xMidYMid meet" version="1.0"><defs><g/><clipPath id="401be070a8"><path d="M 63 155.097656 L 311.875 155.097656 L 311.875 219.597656 L 63 219.597656 Z M 63 155.097656 " clip-rule="nonzero"/></clipPath><clipPath id="67349b051c"><path d="M 63 155.097656 L 311.875 155.097656 L 311.875 215 L 63 215 Z M 63 155.097656 " clip-rule="nonzero"/></clipPath><clipPath id="b865154403"><path d="M 72 159 L 311.875 159 L 311.875 215 L 72 215 Z M 72 159 " clip-rule="nonzero"/></clipPath><clipPath id="c07931fc27"><path d="M 109 182 L 311.875 182 L 311.875 219.597656 L 109 219.597656 Z M 109 182 " clip-rule="nonzero"/></clipPath><clipPath id="ab5c24738d"><path d="M 64 190 L 311.875 190 L 311.875 219.597656 L 64 219.597656 Z M 64 190 " clip-rule="nonzero"/></clipPath><clipPath id="f50f30c0ef"><path d="M 65 173 L 311.875 173 L 311.875 215 L 65 215 Z M 65 173 " clip-rule="nonzero"/></clipPath><clipPath id="28cbaaa729"><path d="M 73 174 L 311.875 174 L 311.875 215 L 73 215 Z M 73 174 " clip-rule="nonzero"/></clipPath><clipPath id="a0bde83569"><path d="M 234.363281 166.746094 L 288.363281 166.746094 L 288.363281 207.996094 L 234.363281 207.996094 Z M 234.363281 166.746094 " clip-rule="nonzero"/></clipPath></defs><g clip-path="url(#401be070a8)"><path fill="#54bf3e" d="M 265.1875 155.097656 L 109.558594 155.097656 C 85.957031 155.097656 63.210938 156.78125 63.210938 182.644531 L 63.210938 192.046875 C 63.210938 217.914062 85.957031 219.59375 109.558594 219.59375 L 265.1875 219.59375 C 288.789062 219.59375 311.535156 217.914062 311.535156 192.046875 L 311.535156 182.644531 C 311.535156 156.78125 288.789062 155.097656 265.1875 155.097656 " fill-opacity="1" fill-rule="nonzero"/></g><g clip-path="url(#67349b051c)"><path fill="#5dc23e" d="M 265.1875 155.097656 L 109.558594 155.097656 C 85.957031 155.097656 63.210938 156.648438 63.210938 180.492188 L 63.210938 189.164062 C 63.210938 213.011719 85.957031 214.558594 109.558594 214.558594 L 265.1875 214.558594 C 288.789062 214.558594 311.535156 213.011719 311.535156 189.164062 L 311.535156 180.492188 C 311.535156 156.648438 288.789062 155.097656 265.1875 155.097656 " fill-opacity="1" fill-rule="nonzero"/></g><g clip-path="url(#b865154403)"><path fill="#62c333" d="M 266.867188 159.128906 L 116.871094 159.128906 C 94.125 159.128906 72.203125 160.574219 72.203125 182.804688 L 72.203125 190.886719 C 72.203125 213.117188 94.125 214.558594 116.871094 214.558594 L 266.867188 214.558594 C 289.613281 214.558594 311.535156 213.117188 311.535156 190.886719 L 311.535156 182.804688 C 311.535156 160.574219 289.613281 159.128906 266.867188 159.128906 " fill-opacity="1" fill-rule="nonzero"/></g><g clip-path="url(#c07931fc27)"><path fill="#ffffff" d="M 265.1875 219.59375 L 109.558594 219.59375 C 109.511719 219.59375 109.464844 219.59375 109.421875 219.59375 C 109.464844 219.59375 109.511719 219.59375 109.558594 219.59375 L 265.1875 219.59375 C 288.789062 219.59375 311.535156 217.914062 311.535156 192.046875 L 311.535156 182.644531 L 311.535156 192.046875 C 311.535156 217.914062 288.789062 219.59375 265.1875 219.59375 " fill-opacity="1" fill-rule="nonzero"/></g><g clip-path="url(#ab5c24738d)"><path fill="#60c44f" d="M 265.1875 219.59375 L 109.558594 219.59375 C 109.511719 219.59375 109.464844 219.59375 109.421875 219.59375 C 88.570312 219.585938 68.4375 218.222656 64.085938 200.003906 C 64.472656 200.023438 64.886719 200.042969 65.328125 200.070312 C 71.496094 213.523438 90.238281 214.558594 109.558594 214.558594 L 266.867188 214.558594 C 289.613281 214.558594 311.535156 213.117188 311.535156 190.886719 L 311.535156 192.046875 C 311.535156 217.914062 288.789062 219.59375 265.1875 219.59375 " fill-opacity="1" fill-rule="nonzero"/></g><g clip-path="url(#f50f30c0ef)"><path fill="#68c64c" d="M 116.871094 214.558594 L 109.558594 214.558594 C 90.238281 214.558594 71.496094 213.523438 65.328125 200.070312 C 67.5625 200.183594 70.472656 200.328125 73.984375 200.476562 C 79.644531 213.5625 97.972656 214.558594 116.871094 214.558594 M 311.535156 182.804688 C 311.535156 179.410156 311.023438 176.496094 310.074219 174.003906 C 310.195312 173.921875 310.3125 173.839844 310.429688 173.757812 C 311.144531 176.351562 311.535156 179.289062 311.535156 182.644531 L 311.535156 182.804688 " fill-opacity="1" fill-rule="nonzero"/></g><g clip-path="url(#28cbaaa729)"><path fill="#6ec846" d="M 266.867188 214.558594 L 116.871094 214.558594 C 97.972656 214.558594 79.644531 213.5625 73.984375 200.476562 C 86.480469 201.019531 106.492188 201.675781 129.902344 201.675781 C 191.421875 201.675781 276.410156 197.136719 310.074219 174.003906 C 311.023438 176.496094 311.535156 179.410156 311.535156 182.804688 L 311.535156 190.886719 C 311.535156 213.117188 289.613281 214.558594 266.867188 214.558594 " fill-opacity="1" fill-rule="nonzero"/></g><g clip-path="url(#a0bde83569)"><path fill="#000000" d="M 255.628906 166.746094 C 254.054688 166.746094 252.621094 167.628906 251.917969 169.027344 L 251.097656 170.652344 C 250.394531 172.050781 248.957031 172.933594 247.382812 172.933594 L 238.535156 172.933594 C 236.242188 172.933594 234.386719 174.78125 234.386719 177.058594 L 234.386719 203.871094 C 234.386719 206.152344 236.242188 207.996094 238.535156 207.996094 L 284.191406 207.996094 C 286.484375 207.996094 288.34375 206.152344 288.34375 203.871094 L 288.34375 177.058594 C 288.34375 174.78125 286.484375 172.933594 284.191406 172.933594 L 275.34375 172.933594 C 273.769531 172.933594 272.335938 172.050781 271.632812 170.652344 L 270.8125 169.027344 C 270.109375 167.628906 268.671875 166.746094 267.097656 166.746094 Z M 242.6875 168.808594 C 241.542969 168.808594 240.613281 169.734375 240.613281 170.871094 L 246.835938 170.871094 C 246.835938 169.734375 245.90625 168.808594 244.761719 168.808594 Z M 261.363281 174.996094 C 269.375 174.996094 275.890625 181.472656 275.890625 189.433594 C 275.890625 197.394531 269.375 203.871094 261.363281 203.871094 C 253.355469 203.871094 246.835938 197.394531 246.835938 189.433594 C 246.835938 181.472656 253.355469 174.996094 261.363281 174.996094 Z M 280.042969 177.058594 C 281.1875 177.058594 282.117188 177.984375 282.117188 179.121094 C 282.117188 180.261719 281.1875 181.183594 280.042969 181.183594 C 278.894531 181.183594 277.964844 180.261719 277.964844 179.121094 C 277.964844 177.984375 278.894531 177.058594 280.042969 177.058594 Z M 261.363281 179.121094 C 260.683594 179.121094 260.007812 179.1875 259.339844 179.320312 C 258.671875 179.453125 258.023438 179.648438 257.394531 179.90625 C 256.765625 180.164062 256.164062 180.484375 255.597656 180.859375 C 255.03125 181.234375 254.507812 181.664062 254.027344 182.140625 C 253.546875 182.621094 253.113281 183.140625 252.738281 183.703125 C 252.359375 184.269531 252.039062 184.863281 251.777344 185.488281 C 251.515625 186.113281 251.320312 186.757812 251.1875 187.421875 C 251.054688 188.085938 250.988281 188.757812 250.988281 189.433594 C 250.988281 190.113281 251.054688 190.78125 251.1875 191.445312 C 251.320312 192.109375 251.515625 192.753906 251.777344 193.378906 C 252.039062 194.007812 252.359375 194.601562 252.738281 195.164062 C 253.113281 195.726562 253.546875 196.246094 254.027344 196.726562 C 254.507812 197.207031 255.03125 197.632812 255.597656 198.007812 C 256.164062 198.386719 256.765625 198.703125 257.394531 198.960938 C 258.023438 199.222656 258.671875 199.417969 259.339844 199.546875 C 260.007812 199.679688 260.683594 199.746094 261.363281 199.746094 C 262.046875 199.746094 262.71875 199.679688 263.386719 199.546875 C 264.058594 199.417969 264.707031 199.222656 265.335938 198.960938 C 265.964844 198.703125 266.5625 198.386719 267.128906 198.007812 C 267.695312 197.632812 268.21875 197.207031 268.703125 196.726562 C 269.183594 196.246094 269.613281 195.726562 269.992188 195.164062 C 270.371094 194.601562 270.691406 194.007812 270.949219 193.378906 C 271.210938 192.753906 271.40625 192.109375 271.542969 191.445312 C 271.675781 190.78125 271.742188 190.113281 271.742188 189.433594 C 271.742188 188.757812 271.675781 188.085938 271.542969 187.421875 C 271.40625 186.757812 271.210938 186.113281 270.949219 185.488281 C 270.691406 184.863281 270.371094 184.269531 269.992188 183.703125 C 269.613281 183.140625 269.183594 182.621094 268.703125 182.140625 C 268.21875 181.664062 267.695312 181.234375 267.128906 180.859375 C 266.5625 180.484375 265.964844 180.164062 265.335938 179.90625 C 264.707031 179.648438 264.058594 179.453125 263.386719 179.320312 C 262.71875 179.1875 262.046875 179.121094 261.363281 179.121094 Z M 261.363281 179.121094 " fill-opacity="1" fill-rule="nonzero"/></g><g fill="#ffffff" fill-opacity="1"><g transform="translate(84.878399, 201.749987)"><g><path d="M 5.765625 0.046875 C 4.910156 0.441406 4.160156 0.289062 3.515625 -0.40625 C 2.503906 -1.46875 2.691406 -2.304688 4.078125 -2.921875 C 9.203125 -5.347656 13.882812 -8.921875 18.125 -13.640625 C 19.476562 -15.210938 20.769531 -17.015625 22 -19.046875 C 23.28125 -21.148438 24.144531 -22.988281 24.59375 -24.5625 L 9.3125 -24.5625 C 8.726562 -24.5625 7.90625 -24.535156 6.84375 -24.484375 C 6.25 -24.429688 5.847656 -24.535156 5.640625 -24.796875 C 5.453125 -25.015625 5.359375 -25.445312 5.359375 -26.09375 C 5.359375 -26.75 5.476562 -27.203125 5.71875 -27.453125 C 5.957031 -27.710938 6.398438 -27.816406 7.046875 -27.765625 C 7.835938 -27.679688 8.59375 -27.640625 9.3125 -27.640625 L 24.484375 -27.640625 C 25.222656 -27.640625 25.847656 -27.679688 26.359375 -27.765625 C 27.078125 -27.921875 27.769531 -27.742188 28.4375 -27.234375 L 28.515625 -27.15625 C 29.078125 -26.726562 29.1875 -26.195312 28.84375 -25.5625 C 28.625 -25.1875 28.488281 -24.921875 28.4375 -24.765625 C 26.78125 -20.628906 24.582031 -16.785156 21.84375 -13.234375 C 25.144531 -10.441406 28.648438 -6.910156 32.359375 -2.640625 C 32.734375 -2.210938 32.867188 -1.828125 32.765625 -1.484375 C 32.679688 -1.160156 32.390625 -0.789062 31.890625 -0.375 C 31.398438 0.03125 31 0.234375 30.6875 0.234375 C 30.3125 0.265625 29.9375 0.0390625 29.5625 -0.4375 C 26.625 -4.144531 23.359375 -7.613281 19.765625 -10.84375 C 15.390625 -6.09375 10.722656 -2.460938 5.765625 0.046875 Z M 5.765625 0.046875 "/></g></g></g><g fill="#ffffff" fill-opacity="1"><g transform="translate(120.114893, 201.749987)"><g><path d="M 21.40625 1.203125 C 20.28125 1.410156 19.613281 0.890625 19.40625 -0.359375 C 19.289062 -1.160156 19.179688 -1.757812 19.078125 -2.15625 C 18.816406 -3.65625 18.3125 -6.296875 17.5625 -10.078125 C 16.414062 -9.890625 14.757812 -9.609375 12.59375 -9.234375 C 9.632812 -8.734375 7.769531 -8.414062 7 -8.28125 C 6.226562 -8.144531 5.601562 -8.023438 5.125 -7.921875 C 4.53125 -7.785156 4.097656 -7.816406 3.828125 -8.015625 C 3.566406 -8.210938 3.375 -8.625 3.25 -9.25 C 3.132812 -9.882812 3.195312 -10.34375 3.4375 -10.625 C 3.675781 -10.90625 4.117188 -11.070312 4.765625 -11.125 C 4.921875 -11.144531 5.160156 -11.171875 5.484375 -11.203125 C 5.878906 -11.253906 6.15625 -11.289062 6.3125 -11.3125 C 8.101562 -11.582031 11.664062 -12.144531 17 -13 L 15.4375 -20.84375 C 11.519531 -20.25 8.65625 -19.78125 6.84375 -19.4375 C 6.625 -19.414062 6.300781 -19.363281 5.875 -19.28125 C 5.613281 -19.226562 5.414062 -19.1875 5.28125 -19.15625 C 4.695312 -19.019531 4.253906 -19.050781 3.953125 -19.25 C 3.660156 -19.457031 3.445312 -19.867188 3.3125 -20.484375 C 3.070312 -21.703125 3.582031 -22.351562 4.84375 -22.4375 C 5.425781 -22.488281 5.890625 -22.539062 6.234375 -22.59375 C 8.109375 -22.78125 10.976562 -23.195312 14.84375 -23.84375 C 14.789062 -24.082031 14.722656 -24.414062 14.640625 -24.84375 C 14.316406 -26.65625 14.117188 -27.691406 14.046875 -27.953125 C 14.015625 -28.066406 13.984375 -28.203125 13.953125 -28.359375 C 13.898438 -28.578125 13.863281 -28.738281 13.84375 -28.84375 C 13.4375 -30.070312 13.847656 -30.773438 15.078125 -30.953125 C 16.222656 -31.140625 16.878906 -30.625 17.046875 -29.40625 C 17.097656 -29.132812 17.132812 -28.835938 17.15625 -28.515625 L 17.203125 -28.40625 C 17.441406 -27.007812 17.707031 -25.644531 18 -24.3125 C 22.375 -25.007812 25.390625 -25.519531 27.046875 -25.84375 C 27.628906 -25.945312 28.039062 -26.023438 28.28125 -26.078125 C 28.84375 -26.234375 29.257812 -26.210938 29.53125 -26.015625 C 29.8125 -25.816406 30.007812 -25.421875 30.125 -24.828125 C 30.25 -24.242188 30.21875 -23.8125 30.03125 -23.53125 C 29.851562 -23.257812 29.484375 -23.082031 28.921875 -23 C 28.785156 -22.96875 28.582031 -22.941406 28.3125 -22.921875 C 28.019531 -22.867188 27.8125 -22.828125 27.6875 -22.796875 C 26.851562 -22.691406 24.914062 -22.382812 21.875 -21.875 C 20.4375 -21.664062 19.332031 -21.492188 18.5625 -21.359375 L 19.3125 -17.40625 L 20.125 -13.484375 C 20.863281 -13.617188 21.957031 -13.804688 23.40625 -14.046875 C 26.738281 -14.597656 28.867188 -14.957031 29.796875 -15.125 C 29.929688 -15.144531 30.132812 -15.179688 30.40625 -15.234375 C 31.007812 -15.367188 31.445312 -15.476562 31.71875 -15.5625 C 32.28125 -15.695312 32.6875 -15.660156 32.9375 -15.453125 C 33.1875 -15.253906 33.378906 -14.863281 33.515625 -14.28125 C 33.648438 -13.695312 33.628906 -13.265625 33.453125 -12.984375 C 33.285156 -12.703125 32.90625 -12.519531 32.3125 -12.4375 C 32.050781 -12.414062 31.585938 -12.335938 30.921875 -12.203125 C 30.679688 -12.171875 30.492188 -12.144531 30.359375 -12.125 C 26.890625 -11.53125 23.664062 -11.019531 20.6875 -10.59375 C 20.894531 -9.582031 21.171875 -8.210938 21.515625 -6.484375 C 21.972656 -4.316406 22.238281 -3.0625 22.3125 -2.71875 C 22.476562 -1.96875 22.613281 -1.410156 22.71875 -1.046875 C 23.09375 0.210938 22.65625 0.960938 21.40625 1.203125 Z M 21.40625 1.203125 "/></g></g></g><g fill="#ffffff" fill-opacity="1"><g transform="translate(156.831245, 201.749987)"><g><path d="M 17.359375 2.84375 C 16.210938 3.132812 15.546875 2.691406 15.359375 1.515625 C 15.253906 1.035156 15.160156 0.691406 15.078125 0.484375 C 14.992188 0.210938 14.820312 -0.441406 14.5625 -1.484375 C 13.09375 -6.867188 11.957031 -11 11.15625 -13.875 C 10.007812 -13.632812 8.460938 -13.328125 6.515625 -12.953125 C 5.265625 -12.691406 4.425781 -12.519531 4 -12.4375 C 3.625 -12.351562 3.359375 -12.394531 3.203125 -12.5625 C 3.117188 -12.664062 3.023438 -12.914062 2.921875 -13.3125 C 2.890625 -13.476562 2.863281 -13.601562 2.84375 -13.6875 C 2.570312 -14.75 2.984375 -15.332031 4.078125 -15.4375 C 4.296875 -15.46875 4.628906 -15.519531 5.078125 -15.59375 C 5.347656 -15.625 5.550781 -15.65625 5.6875 -15.6875 C 5.925781 -15.707031 6.695312 -15.851562 8 -16.125 C 9.039062 -16.3125 9.867188 -16.457031 10.484375 -16.5625 C 10.429688 -16.71875 10.363281 -16.941406 10.28125 -17.234375 C 9.664062 -19.347656 9.289062 -20.617188 9.15625 -21.046875 C 9.15625 -21.117188 9.132812 -21.222656 9.09375 -21.359375 C 9.0625 -21.492188 9.03125 -21.585938 9 -21.640625 C 8.726562 -22.253906 8.671875 -22.734375 8.828125 -23.078125 C 8.992188 -23.421875 9.398438 -23.675781 10.046875 -23.84375 C 10.628906 -23.976562 11.0625 -23.953125 11.34375 -23.765625 C 11.625 -23.578125 11.828125 -23.1875 11.953125 -22.59375 C 11.984375 -22.4375 12.039062 -22.210938 12.125 -21.921875 C 12.144531 -21.835938 12.15625 -21.769531 12.15625 -21.71875 L 12.765625 -19.40625 L 13.40625 -17.078125 C 14.070312 -17.210938 15.082031 -17.414062 16.4375 -17.6875 C 22.726562 -18.882812 26.234375 -19.578125 26.953125 -19.765625 C 27.066406 -19.785156 27.226562 -19.820312 27.4375 -19.875 C 27.65625 -19.925781 27.800781 -19.96875 27.875 -20 C 28.25 -20.1875 28.609375 -20.144531 28.953125 -19.875 L 29.515625 -19.484375 C 29.785156 -19.296875 29.96875 -19.066406 30.0625 -18.796875 C 30.15625 -18.535156 30.132812 -18.296875 30 -18.078125 C 29.195312 -16.585938 28.09375 -14.878906 26.6875 -12.953125 C 25.320312 -11.085938 24.023438 -9.488281 22.796875 -8.15625 C 22.535156 -7.863281 22.253906 -7.71875 21.953125 -7.71875 C 21.710938 -7.695312 21.394531 -7.773438 21 -7.953125 C 19.820312 -8.515625 19.71875 -9.238281 20.6875 -10.125 C 22.945312 -12.382812 24.734375 -14.632812 26.046875 -16.875 C 25.554688 -16.800781 22.703125 -16.242188 17.484375 -15.203125 C 16.015625 -14.910156 14.90625 -14.679688 14.15625 -14.515625 C 14.238281 -14.222656 14.359375 -13.785156 14.515625 -13.203125 C 16.628906 -5.597656 17.84375 -1.273438 18.15625 -0.234375 C 18.1875 -0.179688 18.210938 -0.078125 18.234375 0.078125 C 18.347656 0.347656 18.414062 0.5625 18.4375 0.71875 C 18.8125 1.863281 18.453125 2.570312 17.359375 2.84375 Z M 17.359375 2.84375 "/></g></g></g><g fill="#ffffff" fill-opacity="1"><g transform="translate(188.868062, 201.749987)"><g><path d="M 7.078125 0.15625 C 5.960938 0.394531 5.148438 0.113281 4.640625 -0.6875 C 4.210938 -1.351562 4.160156 -1.910156 4.484375 -2.359375 C 4.796875 -2.785156 5.367188 -3.078125 6.203125 -3.234375 C 10.816406 -4.222656 15.082031 -5.957031 19 -8.4375 C 21.851562 -10.25 24.503906 -12.53125 26.953125 -15.28125 C 28.472656 -16.988281 29.820312 -18.800781 31 -20.71875 C 31.75 -22.15625 32.550781 -22.113281 33.40625 -20.59375 C 33.800781 -19.90625 33.8125 -19.226562 33.4375 -18.5625 C 31.96875 -16.101562 30.207031 -13.796875 28.15625 -11.640625 C 25.894531 -9.242188 23.441406 -7.226562 20.796875 -5.59375 C 16.585938 -2.90625 12.015625 -0.988281 7.078125 0.15625 Z M 14.40625 -18.875 C 14.050781 -18.800781 13.6875 -18.945312 13.3125 -19.3125 C 10.78125 -21.71875 8.265625 -23.84375 5.765625 -25.6875 C 4.910156 -26.289062 4.894531 -27.035156 5.71875 -27.921875 C 6.363281 -28.609375 7.03125 -28.726562 7.71875 -28.28125 C 8.8125 -27.507812 10.210938 -26.429688 11.921875 -25.046875 C 13.734375 -23.546875 14.988281 -22.476562 15.6875 -21.84375 C 16.050781 -21.46875 16.222656 -21.109375 16.203125 -20.765625 C 16.148438 -20.441406 15.898438 -20.054688 15.453125 -19.609375 C 15.015625 -19.171875 14.664062 -18.925781 14.40625 -18.875 Z M 14.40625 -18.875 "/></g></g></g></svg>