<svg xmlns="http://www.w3.org/2000/svg" xmlns:xlink="http://www.w3.org/1999/xlink" width="500" zoomAndPan="magnify" viewBox="0 0 375 374.999991" height="500" preserveAspectRatio="xMidYMid meet" version="1.0"><defs><clipPath id="9b7fc7ed4d"><path d="M 77 74 L 305 74 L 305 301.210938 L 77 301.210938 Z M 77 74 " clip-rule="nonzero"/></clipPath></defs><path fill="#ffffff" d="M 208.136719 108.71875 C 195.308594 95.890625 178.230469 88.828125 160.042969 88.828125 C 141.855469 88.828125 124.777344 95.890625 111.945312 108.71875 C 85.429688 135.238281 85.429688 178.394531 111.945312 204.917969 C 124.773438 217.746094 141.851562 224.808594 160.042969 224.808594 C 178.230469 224.808594 195.308594 217.746094 208.136719 204.917969 C 220.964844 192.085938 228.03125 175.007812 228.03125 156.820312 C 228.03125 138.632812 220.964844 121.546875 208.136719 108.71875 Z M 204.335938 201.113281 C 192.519531 212.921875 176.792969 219.429688 160.042969 219.429688 C 143.289062 219.429688 127.5625 212.925781 115.75 201.113281 C 91.328125 176.6875 91.328125 136.949219 115.75 112.523438 C 127.566406 100.714844 143.292969 94.207031 160.042969 94.207031 C 176.792969 94.207031 192.519531 100.714844 204.335938 112.523438 C 228.757812 136.949219 228.757812 176.6875 204.335938 201.113281 Z M 204.335938 201.113281 " fill-opacity="1" fill-rule="nonzero"/><g clip-path="url(#9b7fc7ed4d)"><path fill="#ffffff" d="M 299.09375 271.078125 L 244.449219 216.433594 C 243.441406 215.421875 241.652344 215.421875 240.644531 216.433594 L 239.21875 217.859375 C 239.085938 217.546875 238.902344 217.25 238.644531 216.996094 L 227.117188 205.460938 C 237.335938 191.417969 242.863281 174.554688 242.863281 156.816406 C 242.863281 134.660156 234.261719 113.851562 218.632812 98.226562 C 203.003906 82.605469 182.199219 74 160.046875 74 C 137.890625 74 117.082031 82.605469 101.453125 98.230469 C 69.148438 130.535156 69.148438 183.101562 101.453125 215.414062 C 117.082031 231.035156 137.890625 239.640625 160.042969 239.640625 C 177.78125 239.640625 194.644531 234.109375 208.6875 223.894531 L 220.21875 235.429688 C 220.472656 235.683594 220.765625 235.871094 221.078125 236.003906 L 219.667969 237.417969 C 218.613281 238.46875 218.613281 240.167969 219.667969 241.222656 L 229.394531 250.953125 L 274.304688 295.871094 C 277.613281 299.183594 282.019531 301.007812 286.699219 301.007812 C 291.382812 301.007812 295.785156 299.183594 299.09375 295.871094 C 305.929688 289.027344 305.929688 277.910156 299.09375 271.078125 Z M 105.253906 211.601562 C 75.046875 181.390625 75.046875 132.238281 105.253906 102.03125 C 119.863281 87.421875 139.320312 79.375 160.042969 79.375 C 180.757812 79.375 200.214844 87.417969 214.820312 102.027344 C 229.433594 116.636719 237.476562 136.09375 237.476562 156.8125 C 237.476562 177.53125 229.433594 196.988281 214.820312 211.59375 C 200.210938 226.203125 180.757812 234.25 160.039062 234.25 C 139.324219 234.253906 119.863281 226.210938 105.253906 211.601562 Z M 224.019531 231.621094 L 212.964844 220.558594 C 214.917969 218.933594 216.8125 217.222656 218.628906 215.402344 C 220.445312 213.585938 222.160156 211.691406 223.785156 209.742188 L 234.839844 220.796875 C 235.09375 221.054688 235.386719 221.242188 235.703125 221.371094 L 224.589844 232.484375 C 224.460938 232.171875 224.277344 231.875 224.019531 231.621094 Z M 242.546875 222.136719 L 248.167969 227.757812 L 231.238281 245.183594 L 225.371094 239.3125 Z M 295.289062 292.0625 C 292.992188 294.359375 289.945312 295.621094 286.699219 295.621094 C 283.453125 295.621094 280.402344 294.359375 278.109375 292.0625 L 235.046875 248.988281 L 251.972656 231.558594 L 295.292969 274.882812 C 300.027344 279.617188 300.027344 287.324219 295.289062 292.0625 Z M 295.289062 292.0625 " fill-opacity="1" fill-rule="nonzero"/></g></svg>